<?xml version="1.0" encoding="utf-8"?>
<!-- Generator: Adobe Illustrator 17.0.0, SVG Export Plug-In . SVG Version: 6.00 Build 0)  -->
<!DOCTYPE svg PUBLIC "-//W3C//DTD SVG 1.1//EN" "http://www.w3.org/Graphics/SVG/1.1/DTD/svg11.dtd">
<svg version="1.1" id="Layer_1" xmlns="http://www.w3.org/2000/svg" xmlns:xlink="http://www.w3.org/1999/xlink" x="0px" y="0px"
	 width="300px" height="100px" viewBox="0 0 300 100" enable-background="new 0 0 300 100" xml:space="preserve">
<g>
	<g>
		<path fill="#ED2427" d="M54.731,17.444c-8.508,0-16.507,3.317-22.526,9.327c-8.144,8.142-11.238,19.987-8.17,31.06
			c2.775,0.766,5.642,1.156,8.528,1.156c0.004,0,0.004,0,0.008,0c8.504,0,16.503-3.31,22.521-9.324
			c8.14-8.146,11.236-19.988,8.168-31.057C60.487,17.836,57.618,17.444,54.731,17.444z"/>
		<path fill="#ED2427" d="M32.602,22.84c3.844-3.229,8.289-5.549,13.07-6.839C42.899,10.204,38.392,5.28,32.602,2
			c-5.792,3.28-10.301,8.204-13.071,14.01C24.267,17.301,28.737,19.604,32.602,22.84z"/>
		<path fill="#ED2427" d="M30.337,24.903c0.095-0.089,0.187-0.175,0.279-0.269C22.647,18.117,11.98,15.82,1.943,18.6
			c-0.768,2.776-1.156,5.641-1.156,8.535c0,8.506,3.312,16.506,9.326,22.528c3.176,3.169,6.912,5.574,10.944,7.144
			C18.501,45.325,21.944,33.307,30.337,24.903z"/>
		<path fill="#ED2427" d="M42.617,60.163c-4.108,1.238-8.328,1.677-12.458,1.382c-0.054-0.007-0.109-0.009-0.16-0.014
			c-0.226-0.011-0.453-0.037-0.674-0.062c-2.285-0.214-4.538-0.648-6.737-1.307l-0.581-0.18c0.745,5.187,5.216,9.183,10.601,9.183
			c5.383,0,9.85-4.003,10.594-9.183L42.617,60.163z"/>
	</g>
	<g>
		<path fill="#323031" d="M81.922,35.16c0.033-0.033,0.067-0.067,0.1-0.1c2.741-2.741,6.05-4.111,9.927-4.111
			c3.877,0,7.186,1.37,9.927,4.111c2.741,2.741,4.111,6.05,4.111,9.927s-1.37,7.186-4.111,9.927
			c-2.741,2.741-6.05,4.111-9.927,4.111c-3.877,0-7.186-1.37-9.927-4.111c-2.741-2.741-4.111-6.05-4.111-9.927V20.87
			c0-0.552,0.196-1.024,0.589-1.416c0.392-0.393,0.865-0.589,1.416-0.589c0.552,0,1.024,0.196,1.416,0.589
			c0.392,0.393,0.589,0.865,0.589,1.416V35.16z M91.95,55.014c2.774,0,5.139-0.978,7.094-2.933c1.955-1.955,2.933-4.32,2.933-7.094
			s-0.978-5.139-2.933-7.094c-1.955-1.955-4.321-2.933-7.094-2.933c-2.774,0-5.139,0.978-7.094,2.933
			c-1.955,1.955-2.933,4.32-2.933,7.094s0.978,5.139,2.933,7.094C86.811,54.036,89.175,55.014,91.95,55.014z"/>
		<path fill="#323031" d="M138.638,57.019c0,0.552-0.197,1.024-0.589,1.416c-0.393,0.393-0.865,0.589-1.416,0.589
			s-1.024-0.196-1.416-0.589c-0.393-0.393-0.589-0.865-0.589-1.416V55.39c-2.507,2.423-5.515,3.635-9.025,3.635
			c-3.594,0-6.664-1.274-9.213-3.823c-2.549-2.549-3.823-5.62-3.823-9.213V32.954c0-0.552,0.196-1.024,0.589-1.416
			c0.392-0.393,0.865-0.589,1.416-0.589c0.552,0,1.024,0.196,1.416,0.589c0.392,0.393,0.589,0.865,0.589,1.416v13.036
			c0,2.49,0.881,4.617,2.645,6.38c1.763,1.763,3.889,2.645,6.38,2.645c2.49,0,4.616-0.882,6.38-2.645
			c1.763-1.763,2.645-3.89,2.645-6.38V32.954c0-0.552,0.196-1.024,0.589-1.416c0.392-0.393,0.865-0.589,1.416-0.589
			s1.024,0.196,1.416,0.589c0.392,0.393,0.589,0.865,0.589,1.416V57.019z"/>
		<path fill="#323031" d="M149.227,42.279l16.971-11.03c0.317-0.201,0.677-0.301,1.078-0.301c0.552,0,1.024,0.196,1.416,0.589
			c0.392,0.393,0.589,0.865,0.589,1.416s-0.192,1.019-0.577,1.404c-0.1,0.1-0.192,0.184-0.276,0.251l-11.632,7.571l11.933,13.437
			c0.367,0.401,0.551,0.869,0.551,1.404c0,0.552-0.197,1.024-0.589,1.416c-0.393,0.393-0.865,0.589-1.416,0.589
			c-0.551,0-1.037-0.201-1.454-0.602l-12.459-14.038l-4.136,2.682v9.952c0,0.552-0.197,1.024-0.589,1.416
			c-0.393,0.393-0.865,0.589-1.416,0.589s-1.024-0.196-1.416-0.589c-0.393-0.393-0.589-0.865-0.589-1.416V20.921
			c0-0.552,0.196-1.024,0.589-1.416c0.392-0.393,0.865-0.589,1.416-0.589s1.024,0.196,1.416,0.589
			c0.392,0.393,0.589,0.865,0.589,1.416V42.279z"/>
		<path fill="#323031" d="M197.62,52.206c0.552,0,1.024,0.196,1.416,0.589s0.589,0.865,0.589,1.416s-0.192,1.028-0.577,1.429
			c-2.59,2.256-5.64,3.384-9.15,3.384c-3.877,0-7.187-1.37-9.928-4.111c-2.742-2.741-4.112-6.05-4.112-9.927s1.37-7.186,4.112-9.927
			c2.741-2.741,6.05-4.111,9.928-4.111s7.186,1.37,9.927,4.111s4.111,6.05,4.111,9.927c0,0.552-0.196,1.024-0.589,1.416
			c-0.393,0.393-0.865,0.589-1.416,0.589h-21.885c0.368,1.922,1.287,3.618,2.758,5.089c1.955,1.955,4.321,2.933,7.095,2.933
			c2.507,0,4.663-0.794,6.468-2.382C196.734,52.348,197.152,52.206,197.62,52.206z M199.75,42.981
			c-0.368-1.922-1.287-3.618-2.758-5.089c-1.955-1.955-4.32-2.933-7.094-2.933c-2.774,0-5.139,0.978-7.095,2.933
			c-1.471,1.471-2.39,3.167-2.758,5.089H199.75z"/>
		<path fill="#323031" d="M224.553,55.014c0.552,0,1.024,0.196,1.416,0.589c0.393,0.393,0.589,0.865,0.589,1.416
			s-0.196,1.024-0.589,1.416c-0.393,0.393-0.865,0.589-1.416,0.589c-6.685,0-10.027-3.342-10.027-10.027V34.959h-2.005
			c-0.551,0-1.024-0.196-1.416-0.589c-0.393-0.393-0.589-0.865-0.589-1.416s0.196-1.024,0.589-1.416
			c0.393-0.393,0.865-0.589,1.416-0.589h2.005V20.921c0-0.552,0.196-1.024,0.589-1.416c0.393-0.393,0.865-0.589,1.416-0.589
			c0.552,0,1.024,0.196,1.416,0.589c0.393,0.393,0.589,0.865,0.589,1.416v10.027h4.036c0.552,0,1.024,0.196,1.416,0.589
			s0.589,0.865,0.589,1.416s-0.196,1.024-0.589,1.416s-0.865,0.589-1.416,0.589h-4.036v14.038
			C218.537,53.008,220.542,55.014,224.553,55.014z"/>
		<path fill="#323031" d="M239.153,56.017c0,0.836-0.292,1.546-0.877,2.131c-0.585,0.585-1.295,0.877-2.131,0.877
			c-0.836,0-1.546-0.292-2.131-0.877c-0.585-0.585-0.877-1.295-0.877-2.131s0.292-1.546,0.877-2.131
			c0.585-0.585,1.295-0.877,2.131-0.877c0.836,0,1.546,0.292,2.131,0.877C238.86,54.471,239.153,55.181,239.153,56.017z"/>
		<path fill="#323031" d="M245.731,20.921c0-0.552,0.196-1.024,0.589-1.416c0.393-0.393,0.865-0.589,1.416-0.589
			c0.551,0,1.024,0.196,1.416,0.589c0.393,0.393,0.589,0.865,0.589,1.416v13.662c2.507-2.423,5.515-3.635,9.025-3.635
			c3.593,0,6.664,1.274,9.213,3.823c2.549,2.549,3.823,5.62,3.823,9.213v13.036c0,0.552-0.196,1.024-0.589,1.416
			c-0.393,0.393-0.865,0.589-1.416,0.589s-1.024-0.196-1.416-0.589c-0.393-0.393-0.589-0.865-0.589-1.416V43.984
			c0-2.49-0.882-4.617-2.645-6.38c-1.763-1.763-3.89-2.645-6.38-2.645c-2.49,0-4.617,0.882-6.38,2.645
			c-1.763,1.763-2.645,3.89-2.645,6.38v13.036c0,0.552-0.196,1.024-0.589,1.416c-0.393,0.393-0.865,0.589-1.416,0.589
			c-0.552,0-1.024-0.196-1.416-0.589c-0.393-0.393-0.589-0.865-0.589-1.416V20.921z"/>
		<path fill="#323031" d="M278.38,32.954c0-0.552,0.196-1.024,0.589-1.416c0.393-0.393,0.865-0.589,1.416-0.589
			s1.024,0.196,1.416,0.589s0.589,0.865,0.589,1.416v2.206c2.808-2.808,6.15-4.212,10.027-4.212c1.955,0,3.752,0.334,5.39,1.003
			c0.301,0.117,0.577,0.292,0.827,0.526c0.384,0.401,0.577,0.877,0.577,1.429c0,0.552-0.196,1.024-0.589,1.416
			s-0.865,0.589-1.416,0.589c-0.318,0-0.61-0.067-0.877-0.201c-1.187-0.501-2.49-0.752-3.911-0.752
			c-2.774,0-5.139,0.978-7.094,2.933s-2.933,4.32-2.933,7.094v12.033c0,0.552-0.196,1.024-0.589,1.416s-0.865,0.589-1.416,0.589
			s-1.024-0.196-1.416-0.589c-0.393-0.393-0.589-0.865-0.589-1.416V32.954z"/>
	</g>
</g>
</svg>
